# xmcd
#
# Track frame offsets:
#	150
#	12672
#	25120
#	38157
#	48294
#	62233
#	76057
#	91541
#	104590
#	123627
#	135963
#	150445
#	165513
#	179662
#	194244
#	209228
#	222741
#
# Disc length: 3159 seconds
#
# Revision: 0
# Processed by: cddbd v1.4PL0 Copyright (c) Steve Scherf et al.
# Submitted via: audiograbber 1.80
#
DISCID=f30c5511
DTITLE=Frank Sinatra - That old black magic
DYEAR=1900
DGENRE=
TTITLE0=That old black magic
TTITLE1=All the things you are 
TTITLE2=My heart stood still
TTITLE3=As time goes by
TTITLE4=I'll be seeing you
TTITLE5=If you are but a dream
TTITLE6=There's no you
TTITLE7=When your lover has gone
TTITLE8=Stormy Weather
TTITLE9=Saturday night
TTITLE10=Nancy
TTITLE11=The house I live in
TTITLE12=These foolish things
TTITLE13=Where or when
TTITLE14=Someone to watch over me
TTITLE15=You go to my head
TTITLE16=I only have eyes for you
EXTD=
EXTT0=
EXTT1=
EXTT2=
EXTT3=
EXTT4=
EXTT5=
EXTT6=
EXTT7=
EXTT8=
EXTT9=
EXTT10=
EXTT11=
EXTT12=
EXTT13=
EXTT14=
EXTT15=
EXTT16=
PLAYORDER=
